<?xml version="1.0" encoding="UTF-8"?>
<svg id="Layer_1" data-name="Layer 1" xmlns="http://www.w3.org/2000/svg" viewBox="0 0 1024 1024">
  <defs>
    <style>
      .cls-1 {
        fill: #012d49;
      }

      .cls-2 {
        fill: none;
        stroke: #000;
        stroke-miterlimit: 10;
      }

      .cls-3 {
        fill: #ef8119;
      }
    </style>
  </defs>
  <g>
    <path class="cls-1" d="M537.9,427.88l112.25,112.25c6.87,6.87,16.18,10.73,25.9,10.73h0c32.63,0,48.97-39.45,25.9-62.52l-164.05-164.05c-14.3-14.3-37.49-14.3-51.79,0l-164.05,164.05c-23.07,23.07-6.73,62.52,25.9,62.52h0c9.71,0,19.03-3.86,25.9-10.73l112.25-112.25c14.3-14.3,37.49-14.3,51.79,0Z"/>
    <path class="cls-1" d="M586.51,660.84c29.17,0,52.91,23.73,52.91,52.91s-23.73,52.91-52.91,52.91h-149.02c-29.17,0-52.91-23.73-52.91-52.91s23.73-52.91,52.91-52.91h149.02M586.51,587.52h-149.02c-69.72,0-126.23,56.52-126.23,126.23h0c0,69.72,56.52,126.23,126.23,126.23h149.02c69.72,0,126.23-56.52,126.23-126.23h0c0-69.72-56.52-126.23-126.23-126.23h0Z"/>
  </g>
  <path class="cls-3" d="M512,550.86c-53.62,0-104.03-20.88-141.95-58.8-37.92-37.92-58.8-88.33-58.8-141.95,0-20.26,16.43-36.69,36.69-36.69s36.69,16.43,36.69,36.69c0,70.23,57.13,127.36,127.36,127.36s127.36-57.13,127.36-127.36c0-20.26,16.43-36.69,36.69-36.69s36.69,16.43,36.69,36.69c0,53.62-20.88,104.03-58.8,141.95-37.92,37.92-88.33,58.8-141.95,58.8Z"/>
  <path d="M245.53,564.84c127.88-128.74,271.81-272.66,400.55-400.53-127.87,128.74-271.81,272.66-400.55,400.53h0Z"/>
  <path d="M290.9,623.08c130.09-130.95,276.5-277.37,407.45-407.45-130.08,130.96-276.5,277.37-407.45,407.45h0Z"/>
  <path d="M380.08,166.48c122,121.14,258.38,257.51,379.52,379.52-122.01-121.13-258.38-257.51-379.52-379.52h0Z"/>
  <path d="M324.79,214.77c128.91,128.04,273.02,272.15,401.06,401.06-128.91-128.04-273.02-272.16-401.06-401.06h0Z"/>
  <path d="M288.2,587.62c143.38-.61,304.23-.62,447.61,0-143.38.62-304.23.61-447.61,0h0Z"/>
  <path d="M233.69,660.84c178.3-.61,378.32-.62,556.62,0-178.3.62-378.32.61-556.62,0h0Z"/>
  <path d="M264.4,766.66c158.63-.61,336.57-.62,495.2,0-158.63.62-336.57.61-495.2,0h0Z"/>
  <path d="M295.8,839.88c138.51-.61,293.89-.62,432.41,0-138.51.62-293.89.61-432.41,0h0Z"/>
  <circle class="cls-2" cx="512" cy="349.97" r="126.86"/>
  <circle class="cls-2" cx="512" cy="349.97" r="199.96"/>
  <path d="M639.42,873.99c-.61-102.05-.62-216.54,0-318.59.62,102.05.61,216.54,0,318.59h0Z"/>
  <path d="M711.96,873.99c-.61-102.05-.62-216.54,0-318.59.62,102.05.61,216.54,0,318.59h0Z"/>
  <path d="M312.04,873.99c-.61-102.05-.62-216.54,0-318.59.62,102.05.61,216.54,0,318.59h0Z"/>
  <path d="M384.58,873.99c-.61-102.05-.62-216.54,0-318.59.62,102.05.61,216.54,0,318.59h0Z"/>
  <path d="M280.12,313.42c150.82-.61,320.01-.62,470.83,0-150.82.62-320.01.61-470.83,0h0Z"/>
  <path d="M277.45,495.42c29.81,28.87,62.42,61.5,91.32,91.32-29.82-28.91-62.44-61.5-91.32-91.32h0Z"/>
  <path d="M656.65,585.59c28.87-29.81,61.5-62.42,91.32-91.32-28.91,29.82-61.5,62.44-91.32,91.32h0Z"/>
</svg>