<?xml version="1.0" encoding="UTF-8"?>
<svg id="Layer_1" xmlns="http://www.w3.org/2000/svg" version="1.1" viewBox="0 0 1024 1024">
  <!-- Generator: Adobe Illustrator 30.0.0, SVG Export Plug-In . SVG Version: 2.1.1 Build 123)  -->
  <defs>
    <style>
      .st0 {
        fill: #012d49;
      }

      .st1 {
        fill: #ef8119;
      }
    </style>
  </defs>
  <path class="st0" d="M524.75,621.93c24.42-29.99,60.31-52.79,95.32-68.76,76.87-35.06,160.42-45.89,244.67-41.67l1.79,8c-3.87,79.01,4.91,162.52,0,240.99-.21,3.29-1.18,16.4-3.95,17.08-2.46-.49-4.78-1.36-7.35-1.42-117.2-2.42-238.25,30.23-327.48,107.72l-3.01-1.52v-260.43Z"/>
  <path class="st0" d="M155.93,513.54c1.32-2.15,3-2.08,5.19-2.33,16.36-1.92,46.12-.73,63.36.01,78.74,3.41,175.19,29.8,238.41,77.72,6.3,4.77,28.72,22.88,31.83,28.39,1.55,2.74,2.73,14.18,2.99,18.09,5.18,79.29-4.07,164.13.01,244l-2.33,5.16c-54.83-48.12-123.78-79.7-194.93-95.58-44.12-9.85-86.56-13.21-131.8-12.85-3.63.03-12.73,3.8-12.73-3.69v-258.92Z"/>
  <path class="st1" d="M696.15,491.51c-52.21,12.25-102.36,31.14-146.29,62.2-13.81,9.77-26.05,21.11-39.42,31.39-12.19-9.9-23.6-20.73-36.41-29.88-43.45-31.06-95.06-51.82-147.12-63.33-3.3-2.24,4.02-31.08,5.57-36.63,32.83-117.49,169.84-171.67,274.93-108.69,50.13,30.04,86.6,85.9,88.73,144.94Z"/>
  <path class="st1" d="M509.29,139.74c8.32-1.76,10.39,4.06,11.01,10.95,3.74,41.12-2.96,87.83-.04,129.56-1.69,14.45-16.5,13.17-18.15-4.49-3.74-40.08,2.93-85.84.03-126.54.1-4.52,2.53-8.5,7.15-9.48Z"/>
  <path class="st1" d="M638.76,168.29c4.34-.84,9.23,2.97,10.16,7.11.65,2.88-2.61,11.17-3.73,14.51-12.61,37.69-30.95,74.86-44,112.56-2.09,3.79-6.27,4.75-10.26,3.46-8.47-2.73-3.37-13.56-1.48-19.72,11.22-36.61,30.11-73.41,41.9-110.14,1.27-3.52,3.41-7.01,7.41-7.79Z"/>
  <path class="st1" d="M434.06,304.68c-6.56,4.11-12.73.9-14.97-6.13-9.98-37.08-34.81-77.94-43.85-114.2-4.18-16.79,9.27-20.97,15.78-8.27,17.87,34.84,27.37,80.79,44.23,116.86l-1.19,11.74Z"/>
  <path class="st1" d="M742.63,233.03c8.66-1.58,14.18,8.02,8.59,14.76l-84.88,94.23c-8.59,6.51-17.79-.9-12.19-10.69l82.05-94.07c1.7-1.7,4.04-3.79,6.43-4.23Z"/>
  <path class="st1" d="M272.23,234.7c5.96-5.7,12.86,1.46,16.94,5.6,27.49,27.89,51.41,62.84,79.09,91,5.29,9.03-2.43,16.67-11.45,11.45l-83.45-92.66c-3.96-4.3-5.76-10.97-1.13-15.4Z"/>
  <path class="st1" d="M205.2,326.36c3.27-.49,7.52,2.52,10.45,4.03,34.84,17.92,67.74,40.39,102.49,58.58,9.45,5.58,2.93,18.05-6.69,14.3l-112.58-63.62c-2.73-5.5.18-12.37,6.33-13.29Z"/>
  <path class="st1" d="M814.74,326.53c9.01-.88,13.12,10.76,5.59,15.93l-107.83,60.81c-9.77,3.97-15.04-4.58-10.14-13.19l112.38-63.55Z"/>
  <path class="st1" d="M173.55,443.8l119.84,21.11c5.76,3.04,2.92,16.99-5.64,14.83l-113.79-20.35c-7.74-2.76-6.79-11.77-.41-15.59Z"/>
  <path class="st1" d="M726.83,477.8c-2.91-2.86-1.45-9.51,1.18-12.39l120.44-21.22c6.81,2.19,7.1,12.81-1.23,15.5-33.23,10.72-78.34,9.48-112.71,19.89-2.34.2-6-.13-7.68-1.77Z"/>
  <path class="st1" d="M467.56,291.5l-10.55-60.21,5.09.17c1.32.33,1.71,1.2,2.14,2.37,5.43,14.88,5,37.11,10.46,52.74-.05,3.69-3.96,5.5-7.14,4.93Z"/>
  <path class="st1" d="M565.2,233l-10.19,57.64c-1.63,2.39-8.08.84-7.61-2.75,5.21-15.28,4.61-37.28,9.98-51.81,1.97-5.34,2.41-5.57,7.82-3.08Z"/>
  <path class="st1" d="M652.15,269.02c2.51-.75,6.38,1.75,5.94,4.49l-26.66,45.65c-4.16,5.8-9.5.65-6.53-5,4.59-5.44,23.69-44.08,27.24-45.14Z"/>
  <path class="st1" d="M367.48,268.94c2.76-.81,4.4,1.21,5.91,3.07,2.9,3.58,24.75,41.93,24.91,44.47.33,5.34-3.8,7.27-7.32,2.67-9.45-12.35-16.44-32.01-25.82-45.05-.49-1.81.67-4.68,2.33-5.16Z"/>
  <path class="st1" d="M296.73,329.15c2.48-.71,3.67.97,5.29,2.19,9.22,6.95,24.19,19.77,32.33,27.88,2.68,2.67,7.47,6.09,4.5,10.59-2.32,2.84-2.57,1.24-4.54-.02-13.44-8.61-25.64-24.03-39.15-33.11-1.59-2.02-.95-6.81,1.56-7.53Z"/>
  <path class="st1" d="M722.99,329.39c6.18-1.78,8.03,2.54,4.11,7.16-4.77,5.62-30.55,28.1-36.86,32.38-6.76,4.58-9.49.36-6.02-6.03l38.78-33.51Z"/>
  <path class="st1" d="M719.02,438.99l-1.39-5.04,50.6-20.23c6.49-1.72,9.34,4.69,2.96,7.57l-52.18,17.7Z"/>
  <path class="st1" d="M246.26,413.45c2.61-.32,5.05.14,7.59.68,5.73,1.21,43.7,14.89,47.17,17.56,4.24,3.26,3.08,7.67-2.12,6.74-15.59-2.82-34.03-14.41-50.13-17.71-3.16-1.2-2.62-4.33-2.5-7.27Z"/>
</svg>